<?xml version="1.0" encoding="utf-8"?>
<svg viewBox="137.716 418.889 746.137 192.753" xmlns="http://www.w3.org/2000/svg">
  <path fill="#ffffff" opacity="1.000000" stroke="none" d=" M179.167313,587.717773 C179.415237,591.579956 177.771759,593.073120 174.440964,593.050842 C167.609695,593.005127 160.777649,592.983948 153.946609,593.038513 C150.756683,593.063965 149.540131,591.632141 149.603867,588.457764 C149.744354,581.462036 149.776993,574.458618 149.603134,567.464539 C149.513168,563.844910 151.225906,562.833313 154.459595,562.887451 C159.956696,562.979553 165.459885,562.783630 170.954147,562.937134 C173.839676,563.017761 176.005066,562.110107 178.045471,560.065186 C206.526138,531.521362 235.049042,503.019562 263.609192,474.555237 C265.779999,472.391724 266.723602,470.041138 266.642639,466.987946 C266.496887,461.493347 266.732819,455.988708 266.591064,450.493896 C266.507080,447.239777 267.957977,445.961182 271.043488,445.974396 C277.874969,446.003601 284.706787,445.995880 291.538239,445.957092 C294.568176,445.939911 296.198181,447.153442 296.166870,450.395782 C296.099243,457.393341 296.108002,464.392548 296.178802,471.390137 C296.210876,474.558746 294.745544,475.934296 291.637909,475.913910 C285.972992,475.876740 280.307404,475.950806 274.642303,475.928833 C272.412384,475.920166 270.398468,476.226929 268.700043,477.932281 C255.766251,490.918945 242.788757,503.862152 229.843765,516.837708 C229.395538,517.286987 229.145966,517.934509 228.498352,518.985229 C234.426224,524.997314 240.333008,531.042358 246.300690,537.026611 C253.830063,544.576965 261.468719,552.019348 268.930786,559.635132 C271.198486,561.949524 273.618073,563.057922 276.878296,562.936768 C281.703430,562.757507 286.541656,562.968872 291.372925,562.905945 C294.730133,562.862244 296.223114,564.382019 296.188751,567.742004 C296.118896,574.572937 296.131073,581.405762 296.203400,588.236755 C296.235291,591.246338 295.151398,593.021912 291.907196,593.016785 C284.742706,593.005493 277.578125,593.016602 270.413635,593.033752 C267.355408,593.041077 266.513550,591.408569 266.548462,588.549438 C266.629791,581.888916 266.369781,575.224487 266.429016,568.563232 C266.448395,566.383606 265.820862,564.695557 264.318787,563.197754 C251.339859,550.255859 238.376587,537.298340 225.393066,524.361084 C225.058624,524.027832 224.546631,523.872620 224.054047,523.599182 C221.647827,524.258728 220.331604,526.312988 218.721664,527.912292 C206.664154,539.890381 194.715424,551.978455 182.601120,563.898438 C180.150497,566.309692 178.979095,568.806152 179.130829,572.256287 C179.350266,577.245361 179.177994,582.251526 179.167313,587.717773 M286.986908,452.308319 C284.656494,452.283691 282.326050,452.238800 279.995636,452.238220 C272.271973,452.236420 272.221985,452.242828 272.269135,459.725708 C272.341370,471.185455 270.919891,469.729919 282.388916,469.796021 C289.824432,469.838867 290.037811,469.780396 289.748962,462.012299 C289.629883,458.810394 291.628418,454.971405 286.986908,452.308319 M281.480133,586.757263 C283.143982,586.742371 284.906342,587.081665 286.454468,586.650818 C292.915924,584.852722 289.082520,579.547424 289.689423,575.877136 C290.095886,573.419067 291.332764,569.662476 286.331940,569.148254 C272.813324,567.758240 271.659973,568.748657 272.264709,582.327148 C272.272125,582.493347 272.283081,582.660767 272.271545,582.826172 C272.082916,585.523376 273.226990,586.895203 276.040741,586.750977 C277.534058,586.674377 279.035187,586.749573 281.480133,586.757263 M155.900833,576.718689 C155.890854,586.797607 155.890854,586.797607 166.111542,586.755249 C166.277679,586.754517 166.447510,586.731384 166.609406,586.757385 C171.752182,587.585205 173.177216,585.285522 172.984619,580.317322 C172.490997,567.584106 174.657669,569.269348 161.839951,569.187317 C155.235474,569.145020 155.235062,569.208496 155.900833,576.718689 z"/>
  <path fill="#ffffff" opacity="1.000000" stroke="none" d=" M435.343933,488.417175 C439.027344,480.911896 442.761902,473.841187 445.994080,466.547852 C448.382782,461.157715 452.844482,463.010040 456.734833,462.797974 C460.400696,462.598206 460.762024,465.511475 461.407196,468.139008 C467.072693,491.211304 472.799957,514.268555 478.386627,537.359863 C478.923981,539.580872 481.406097,542.624817 477.244446,544.033386 C472.652771,545.587585 467.784119,543.910217 466.663788,540.261230 C465.349548,535.980591 464.389343,531.575562 463.536255,527.174011 C462.863495,523.703003 461.346222,522.068176 457.509399,522.225464 C450.366730,522.518188 443.200836,522.461304 436.051483,522.279480 C432.731903,522.195129 430.778381,523.457886 429.508362,526.442932 C427.816406,530.419678 425.948456,534.324951 424.057129,538.212769 C420.972656,544.553162 416.979309,545.923828 408.905945,542.883972 C417.685791,524.796082 426.432648,506.776123 435.343933,488.417175 M450.882050,480.817902 C446.101044,491.158661 441.320068,501.499390 436.136230,512.711487 C443.880798,512.711487 450.496063,512.765015 457.109741,512.685486 C459.816193,512.652954 459.815521,510.784698 459.355774,508.786011 C458.236877,503.921631 457.085114,499.064575 456.005676,494.191467 C454.865814,489.045654 454.143677,483.789459 452.119385,478.290558 C451.575836,479.378601 451.355560,479.819550 450.882050,480.817902 z"/>
  <path fill="#ffffff" opacity="1.000000" stroke="none" d=" M701.779358,534.371948 C708.957825,545.920776 702.042419,556.688110 693.154236,560.876648 C684.478760,564.964966 675.467102,565.274597 666.361572,562.448547 C660.313110,560.571289 655.971680,556.813599 655.484192,550.191467 C654.986938,543.436829 658.685913,538.744568 664.460632,535.847473 C670.517944,532.808594 677.152832,531.995972 683.869751,531.877686 C685.193970,531.854309 686.518921,531.874268 688.033508,531.874268 C689.399597,529.402283 688.318909,526.728577 689.280701,523.801270 C687.168945,524.161255 685.739807,524.406494 684.310120,524.648315 C674.015320,526.389954 665.718506,519.987549 664.812805,509.603455 C663.438477,493.846558 677.559692,481.688568 693.067810,485.798126 C698.481689,487.232788 703.767700,487.844299 709.269958,487.802887 C711.264221,487.787842 714.057251,487.021576 714.371338,490.260895 C714.641663,493.049286 713.321106,495.061218 710.366150,495.708282 C709.077942,495.990356 707.814941,496.387939 705.859985,496.917419 C707.709106,505.725372 703.446472,512.869141 699.300598,520.134949 C696.407227,525.205811 698.516052,529.781311 701.779358,534.371948 M689.408813,494.194153 C680.931030,492.491669 673.987732,500.599365 675.964844,509.892700 C676.996643,514.742859 680.541809,517.307617 685.292236,516.640686 C689.465759,516.054749 693.501221,511.782990 694.641541,506.744080 C695.970154,500.873230 694.670410,497.329742 689.408813,494.194153 M685.645691,554.332275 C688.983948,552.979004 692.025757,551.111816 693.199463,547.552856 C694.050781,544.971436 695.168518,541.503235 691.378784,540.387756 C684.096069,538.244080 676.872559,538.930115 670.181885,542.739502 C667.642639,544.185242 666.695251,546.649170 667.110168,549.581299 C667.526611,552.523438 669.679504,553.756836 672.161133,554.466309 C676.378845,555.672058 680.649658,556.138367 685.645691,554.332275 z"/>
  <path fill="#ffffff" opacity="1.000000" stroke="none" d=" M597.275757,538.381348 C581.616821,548.227051 563.298340,547.201416 552.921387,535.785217 C545.156189,527.242371 542.955322,516.739014 543.848145,505.551453 C545.218445,488.380585 552.313293,474.515259 567.961365,466.063568 C580.866211,459.093567 598.562866,460.632660 607.365906,469.246490 C610.960510,472.763824 610.871033,474.577820 607.126404,477.796783 C605.012756,479.613739 603.083862,479.467010 600.800903,478.011505 C585.191162,468.059479 568.036194,473.105469 560.281250,490.010315 C556.113159,499.096283 555.275146,508.720825 557.689331,518.334595 C561.376648,533.018677 576.689636,538.727417 590.425415,530.843323 C592.293640,529.771057 593.940125,528.319336 595.768616,527.169495 C598.984497,525.147156 600.571594,527.626831 602.357666,529.631958 C604.339050,531.856323 603.484314,533.500061 601.457764,535.035706 C600.130981,536.041016 598.864502,537.126038 597.275757,538.381348 z"/>
  <path fill="#ffffff" opacity="1.000000" stroke="none" d=" M804.833740,538.963257 C802.898987,540.279053 801.320923,541.551331 799.541443,542.403198 C786.865112,548.471802 775.510803,541.705505 776.140747,527.719971 C776.715271,514.964111 778.591492,502.253937 780.209656,489.563873 C780.926208,483.945343 785.708374,485.917267 789.014282,485.905731 C792.965393,485.891907 792.070496,488.891754 791.781677,491.375153 C790.552795,501.940918 789.298035,512.504211 788.175842,523.081482 C787.862061,526.039368 787.584473,529.121460 789.183228,531.863831 C791.016357,535.008484 794.977600,535.724121 798.873108,533.280884 C807.170715,528.076599 811.556091,520.332703 812.687805,510.698090 C813.482666,503.930664 814.286804,497.160736 814.873169,490.373444 C815.405151,484.214630 819.955017,485.897491 823.485229,485.819427 C827.720154,485.725739 826.982788,488.577148 826.639893,491.389893 C824.749023,506.899475 822.874207,522.412659 821.231262,537.949707 C820.824951,541.792847 820.070984,544.412842 815.422913,543.968933 C811.084229,543.554504 809.812500,541.013855 810.093384,537.138184 C810.152222,536.325500 810.257690,535.516235 810.450012,533.659607 C808.269287,535.723206 806.683228,537.224182 804.833740,538.963257 z"/>
  <path fill="#ffffff" opacity="1.000000" stroke="none" d=" M766.364258,504.715576 C765.144226,516.226135 764.052368,527.321655 762.700256,538.385315 C762.048889,543.715393 759.784729,544.960449 753.947815,543.971619 C749.095642,543.149719 750.896606,539.628845 751.181030,536.923096 C752.310059,526.180298 753.676086,515.461975 754.755310,504.714600 C755.087708,501.404877 755.157227,497.683746 751.591370,495.883179 C747.856689,493.997253 744.383911,495.630371 741.431580,498.028717 C732.771729,505.063690 729.831970,514.673157 729.213318,525.379517 C728.935486,530.187500 728.317871,534.991638 727.563171,539.751343 C726.916931,543.827087 724.021057,544.987000 718.690491,543.956604 C714.845581,543.213501 715.844849,540.531860 716.127991,538.128723 C717.957092,522.601624 719.883362,507.085480 721.608826,491.546997 C722.007507,487.957062 722.734619,485.419281 727.167603,485.759094 C731.468262,486.088776 732.310120,488.714630 732.177490,492.277344 C732.141357,493.248596 732.171997,494.222321 732.171997,496.031067 C734.658020,493.728912 736.411316,491.762634 738.491272,490.243835 C744.501282,485.855316 750.971069,482.820343 758.455017,486.346802 C766.144409,489.970032 766.451538,497.104248 766.364258,504.715576 z"/>
  <path fill="#ffffff" opacity="1.000000" stroke="none" d=" M617.605652,552.639648 C624.452820,543.982178 624.458191,535.304504 620.816101,525.434448 C616.914612,514.861145 614.549622,503.714783 611.652710,492.781738 C611.039795,490.468567 608.974426,487.497864 612.975952,486.071594 C617.361511,484.508423 621.836548,486.145538 622.913391,489.939270 C625.184326,497.939636 627.134277,506.030579 629.277039,514.068115 C630.117676,517.221558 630.394592,520.571716 632.556213,524.153564 C638.181824,512.956665 643.761536,502.394867 648.792725,491.577942 C650.897461,487.052795 653.761658,485.471710 658.527161,485.765198 C662.644531,486.018768 662.943359,487.552917 661.239014,490.793060 C655.662720,501.393982 650.206360,512.057922 644.686523,522.688660 C638.553650,534.500244 632.450684,546.327698 626.236877,558.096558 C623.320007,563.621277 619.574158,564.649658 613.289124,561.803528 C613.728088,558.444885 616.167236,555.966125 617.605652,552.639648 z"/>
  <path fill="#ffffff" opacity="1.000000" stroke="none" d=" M856.355896,509.508209 C857.761108,510.137177 858.826477,510.607330 859.873535,511.115356 C872.692505,517.335449 873.769653,531.793640 862.040039,540.151794 C853.980042,545.895081 842.239685,546.251770 834.256470,541.014221 C831.479187,539.192200 829.563232,537.202271 832.051270,533.733521 C834.300659,530.597534 836.749268,530.549438 839.690308,532.750854 C844.717468,536.513855 850.060181,537.227661 855.433167,533.598511 C861.156982,529.732361 860.766541,523.696045 854.627197,520.583923 C851.966187,519.235046 849.084229,518.329163 846.343018,517.129883 C833.784241,511.635376 832.223877,498.207397 843.139648,489.720428 C850.806702,483.759399 861.698914,483.118378 869.820068,488.318420 C871.761902,489.561768 874.715942,490.614807 872.876038,494.015594 C871.177246,497.155487 868.808594,498.251678 865.458374,496.427277 C862.666870,494.907104 859.792480,493.480377 856.492065,493.876099 C852.144653,494.397430 848.098572,495.753021 847.270325,500.741272 C846.485474,505.467804 850.403992,506.823547 853.695618,508.433716 C854.440247,508.797974 855.235596,509.058655 856.355896,509.508209 z"/>
  <path fill="#ffffff" opacity="1.000000" stroke="none" d=" M506.692261,490.580261 C504.746643,507.044769 502.909668,523.070862 501.025452,539.091309 C500.796143,541.041077 500.748444,543.459656 498.264038,543.869385 C495.195160,544.375427 491.938171,544.975098 489.026581,543.334167 C487.685516,542.578369 488.258240,540.965759 488.414856,539.648193 C491.259552,515.714355 494.069977,491.776367 496.942200,467.845795 C497.487183,463.304932 504.711273,460.492523 508.514740,463.264130 C509.973267,464.326965 509.677948,465.845673 509.493713,467.359833 C508.569946,474.950653 507.685089,482.546204 506.692261,490.580261 z"/>
  <path fill="#ffffff" opacity="1.000000" stroke="none" d=" M354.092834,554.000000 C354.091919,569.151794 354.092041,583.803528 354.087555,598.455322 C354.087189,599.620361 354.122131,600.791321 354.019836,601.948853 C353.904114,603.258057 353.873993,604.843140 352.113190,604.975830 C349.953369,605.138489 349.906799,603.388428 349.801208,601.884705 C349.719727,600.724365 349.755035,599.555115 349.755035,598.389832 C349.754486,541.281128 349.741699,484.172363 349.813171,427.063751 C349.815765,424.984436 348.566193,421.343140 351.660614,421.240295 C355.369415,421.117035 353.996857,424.975159 354.001892,427.128387 C354.100098,469.252106 354.084808,511.376068 354.092834,554.000000 z"/>
</svg>